<svg width="19" height="23" viewBox="0 0 19 23" xmlns="http://www.w3.org/2000/svg"><title>pdf</title><defs><filter x="-50%" y="-50%" width="200%" height="200%" filterUnits="objectBoundingBox" id="a"><feOffset dx="1" dy="1" in="SourceAlpha" result="shadowOffsetOuter1"/><feGaussianBlur stdDeviation="1" in="shadowOffsetOuter1" result="shadowBlurOuter1"/><feColorMatrix values="0 0 0 0 0 0 0 0 0 0 0 0 0 0 0 0 0 0 0.28161798 0" in="shadowBlurOuter1" result="shadowMatrixOuter1"/><feMerge><feMergeNode in="shadowMatrixOuter1"/><feMergeNode in="SourceGraphic"/></feMerge></filter></defs><g filter="url(#a)" transform="translate(1 1)" fill="none"><path d="M10.563 0H.67c-.276 0-.5.222-.5.653v18.008c0 .117.224.339.5.339h13.66c.276 0 .5-.222.5-.34V4.404c0-.236-.032-.312-.088-.368L10.775.087A.302.302 0 0 0 10.563 0z" fill="#E9E9E0"/><path fill="#D9D7CA" d="M10.739.051v4.02h4.04z"/><path d="M4.607 11.306a.549.549 0 0 1-.33-.11c-.355-.265-.402-.56-.38-.76.062-.553.749-1.131 2.04-1.72a22.738 22.738 0 0 0 1.292-3.648c-.34-.737-.67-1.693-.43-2.254.085-.196.19-.347.387-.412.077-.026.274-.058.346-.058.172 0 .323.22.43.356.1.127.329.398-.127 2.308.46.944 1.11 1.906 1.734 2.565.447-.08.832-.121 1.145-.121.534 0 .857.124.99.379.108.21.064.457-.134.733a.907.907 0 0 1-.756.404c-.415 0-.898-.26-1.436-.776a16.39 16.39 0 0 0-3.01.958c-.284.602-.558 1.087-.812 1.442-.35.487-.65.714-.949.714zm.908-1.739c-.729.408-1.026.743-1.047.931-.004.031-.013.114.147.235.05-.016.347-.15.9-1.166zm4.649-1.507c.277.213.345.32.527.32.08 0 .307-.003.412-.15a.536.536 0 0 0 .079-.14c-.042-.022-.098-.067-.4-.067-.173 0-.39.008-.618.037zM7.617 5.827c-.244.84-.566 1.746-.912 2.566a17.094 17.094 0 0 1 2.215-.685C8.46 7.176 8 6.512 7.617 5.827zM7.41 2.956c-.033.011-.453.596.033 1.091.323-.718-.018-1.096-.033-1.091zM14.33 19H.67a.498.498 0 0 1-.5-.496v-5.272h14.66v5.272a.498.498 0 0 1-.5.496z" fill="#CC4B4C"/><path d="M3.881 17.982h-.56v-3.418h.989c.146 0 .29.023.433.07.143.046.271.115.385.208.113.092.205.205.275.336.07.131.105.279.105.443 0 .173-.03.33-.089.471a.984.984 0 0 1-.247.355c-.106.096-.233.17-.382.222a1.477 1.477 0 0 1-.494.08H3.88v1.233zm0-2.996v1.354h.513a.612.612 0 0 0 .203-.035.511.511 0 0 0 .319-.334 1.039 1.039 0 0 0 .028-.542.554.554 0 0 0-.298-.376.757.757 0 0 0-.345-.067h-.42zm5.057 1.192a2.5 2.5 0 0 1-.09.721c-.061.2-.138.367-.232.501-.093.135-.198.24-.314.318-.117.078-.23.135-.338.174a1.401 1.401 0 0 1-.298.075c-.09.01-.157.015-.2.015H6.164v-3.418H7.2c.289 0 .543.045.762.136a1.5 1.5 0 0 1 .869.881c.072.194.107.393.107.597zM7.28 17.574c.38 0 .653-.12.82-.362.168-.24.252-.59.252-1.048 0-.142-.017-.283-.051-.422a.901.901 0 0 0-.198-.378 1.045 1.045 0 0 0-.399-.274 1.723 1.723 0 0 0-.652-.104h-.327v2.588h.555zm3.038-2.588v1.076h1.436v.38h-1.436v1.54h-.569v-3.419h2.149v.423z" fill="#FFF"/></g></svg>